<?xml version="1.0" encoding="utf-8"?>
<!-- Generator: Adobe Illustrator 23.0.0, SVG Export Plug-In . SVG Version: 6.00 Build 0)  -->
<svg version="1.1" id="Layer_1" xmlns="http://www.w3.org/2000/svg" xmlns:xlink="http://www.w3.org/1999/xlink" x="0px" y="0px"
   viewBox="0 0 1424.22 1255.73" style="enable-background:new 0 0 1424.22 1255.73;" xml:space="preserve">
<style type="text/css">
  .st0{fill:#27B4E4;}
  .st1{fill:#C6C6C6;}
  .st2{fill:#8F8F8F;}
</style>
<g>
  <g>
    <path class="st0" d="M758.65,358.01c-0.6,0.25-14.89,6.28-25.69,12.07c-5.77,3.09-8.15,8.04-10.26,12.4
      c-2.75,5.72-5.13,10.65-14.91,13.66c-19.11,5.88-77.13,8.95-77.71,8.98l-2.43,0.16l-0.14,0.21c-3.11-5.27-11.48-18.78-16.23-19.97
      c-3.65-0.91-17.65-5.35-22.83-7.01l10.44-28.65c2.57-0.29,5.1-0.78,7.54-1.56c16.68-5.36,28.01-19.45,32.73-26.31l3.46,13.07
      l3.78-1l-4.4-16.61l0.95-1.68l-0.77-0.15c6.93-2.8,14.33-11.16,21.52-19.28c4.2-4.74,8.16-9.22,11.53-11.96
      c9.75-7.95,29.77-9.89,29.97-9.91l-0.36-3.9c-0.87,0.08-21.4,2.07-32.08,10.77c-3.62,2.95-7.68,7.54-11.99,12.4
      c-7.86,8.88-16.77,18.94-23.21,18.94c-3.41,0-6.11,0-6.32,2.29c-0.15,1.58,0.73,2.48,5.5,3.56c-3.84,5.78-15.08,20.76-31.52,26.04
      c-20.41,6.56-48.76-8.14-49.04-8.29l-1.82,3.46c0.56,0.3,7.03,3.65,15.99,6.48c-5.03,8.12-19.71,36.37,1.06,61.14l-1.42,2.88
      c-0.15,0.3-3.78,7.32-16.79,6.76c-15.23-0.69-34.79-13.95-34.99-14.09l-5.53,8.08c0.89,0.61,22.04,14.97,40.08,15.79
      c11.66,0.54,18.53-3.63,22.28-7.29c4.87,3.79,13.75,8.86,26.36,8.86c0.64,0,1.29-0.01,1.95-0.04c16.42-0.67,25.9-9.44,29.45-13.53
      c11.1-0.63,59.59-3.66,77.87-9.28c13.86-4.27,17.9-12.65,20.85-18.76c1.98-4.12,3.25-6.52,6.06-8.02
      c10.4-5.57,24.72-11.62,24.87-11.68L758.65,358.01z M602.94,418.53c-11.75,0.5-19.43-4.59-22.8-7.47l0.17-0.19
      c-1.6-1.4-3.01-2.82-4.33-4.25l-2.34-2.72c-19.18-24-3.29-50.74,0.6-56.54c5.89,1.61,12.52,2.83,19.15,2.83
      c0.41,0,0.82-0.03,1.23-0.04L583.37,381l1.94,0.62c0.83,0.27,20.41,6.54,25.02,7.69c2.27,0.57,9.2,10.25,14.26,18.94l1.69-0.98
      C625.98,407.7,618.81,417.88,602.94,418.53z"/>
    <path class="st0" d="M617.26,220.09l2.14,0.06l-0.14-2.14c-1.8-28.42,20.42-37.77,21.37-38.15l-1.46-3.63
      c-0.25,0.1-24.83,10.33-23.9,40.27c-4.73,1.26-16.48,7.46-25.88,37.83l3.74,1.16C603.9,220.68,617.17,220.1,617.26,220.09z"/>
    <path class="st0" d="M641.83,213.85c2.06-12.75,21.75-18.28,21.95-18.34l-1.03-3.78c-0.91,0.25-22.32,6.25-24.79,21.49
      L641.83,213.85z"/>
    <path class="st0" d="M617.07,236.46c-0.38,0.83-8.53,18.6-4.75,30.22c-3.3-0.2-8.08,0.1-11.3,2.9c-2.52,2.2-3.62,5.43-3.27,9.61
      l3.9-0.32c-0.24-2.91,0.39-4.98,1.94-6.33c3.09-2.7,9.41-2.03,11.57-1.56l4.67,1.04l-2.6-4.01c-6.04-9.31,3.3-29.69,3.39-29.9
      L617.07,236.46z"/>
    <path class="st0" d="M631.15,169.18l0.87-3.82c-0.67-0.16-16.65-3.67-24.19,4.32l2.85,2.69C616.68,166,631,169.15,631.15,169.18z"
      />

      <rect x="662.82" y="206.73" transform="matrix(0.3457 -0.9384 0.9384 0.3457 243.3188 766.3061)" class="st0" width="16.6" height="3.92"/>
    <path class="st0" d="M614.06,314.44c12.62-7.12,11.72-19.61,10.68-24.84c5.13-0.55,17.01-2.57,20.73-9.66
      c1.89-3.61,3.39-9.15,4.96-15.02c2.06-7.64,4.39-16.31,7.98-22c5.64-8.96,23.65-3.82,23.84-3.76l2.2,0.64l2.97-23.08l-3.88-0.5
      l-2.4,18.63c-5.59-1.24-20.15-3.38-26.04,5.99c-3.9,6.19-6.31,15.16-8.44,23.07c-1.52,5.65-2.96,10.99-4.65,14.22
      c-3.02,5.77-15.32,7.56-19.8,7.76l-2.63,0.12l0.87,2.48c0.21,0.61,5.05,15.01-8.3,22.55c-13.79,7.77-24.89,2.48-25.36,2.25
      l-1.75,3.5c0.32,0.16,4.89,2.38,11.79,2.38C601.65,319.16,607.62,318.07,614.06,314.44z"/>
    <path class="st0" d="M678.53,262.96l3.18,2.28c3.59-5.01,14.79-21.76,8.27-27.16l-2.5,3.02
      C690,243.18,684.89,254.08,678.53,262.96z"/>
    <path class="st0" d="M706.6,256.05c0.92-1.28,8.87-12.61,3.62-17.85l-2.77,2.77c2.06,2.06-1.19,8.85-4.03,12.79L706.6,256.05z"/>
    <path class="st0" d="M733,312.21c-2.82,10.13-27.46,9.54-36.76,9.31c-2.09-0.05-3.65-0.08-4.42-0.02
      c-6.92,0.58-32.42,49.07-32.64,49.55c-1.8,3.92-19.68,7.88-31.8,9.43l0.5,3.88c5.23-0.67,31.51-4.39,34.86-11.69
      c4.1-8.92,25.38-45.43,29.4-47.29c0.7-0.06,2.11-0.02,4,0.03c12,0.3,36.99,0.89,40.62-12.18c4.09-14.7-8-27.4-8.52-27.93
      l-2.81,2.72C725.55,288.17,736.48,299.69,733,312.21z"/>
    <path class="st0" d="M691.99,310.56l1.95-19.85l-3.9-0.38l-0.67,6.85c-7.21,1.45-15.02,11.12-20.84,18.35
      c-2.15,2.67-4.83,5.99-5.69,6.43c0.01,0,0.16-0.08,0.43-0.08v3.91c1.92,0,3.63-2.01,8.31-7.81c4.83-5.99,11.83-14.67,17.39-16.67
      l-0.87,8.86L691.99,310.56z"/>
    <path class="st0" d="M700.59,370.99l3.49,1.77c3.8-7.5,8.34-14.28,9.75-14.79c3.61,0,12.54-2.47,13.55-2.75l-1.06-3.77
      c-2.59,0.72-9.89,2.61-12.49,2.61C709.98,354.05,704.51,363.26,700.59,370.99z"/>
    <rect x="740.59" y="313.88" class="st0" width="3.91" height="36.38"/>
  </g>
</g>
<g>
  <g>
    <g>
      <path class="st1" d="M627.65,167.07c0,0,88.74,77.43,114.9,123.83c23.75,42.13,1.02,151.41,9.19,175.92s44.04,74.94,43.41,82.72
        c-0.49,5.98-26.81,10.72-28.85,34.72c-2.04,24-1.02,33.45-5.36,38.3c-4.34,4.85-10.98,13.02-9.96,19.4
        c1.02,6.38,7.92,11.49,3.32,24.26s-11.23,38.81-13.79,49.28s-6.89,35.75-22.21,34.72c-15.32-1.02-94.47-2.3-112.85,9.7
        c-18.38,12-36.77,58.98-43.92,84.26c0,0,25.53-44.43,36.77-56.94c11.23-12.51,28.85-18.89,38.3-17.11
        c9.45,1.79,83.49,1.28,93.45-2.04s23.23-37.79,27.57-53.62s4.09-28.85,6.89-33.7c2.81-4.85,8.17-9.19,9.7-20.68
        c1.53-11.49-3.06-18.64-1.02-22.47c2.04-3.83,7.66-12.51,10.47-22.98c2.81-10.47,0.26-30.38,1.79-31.4
        c1.53-1.02,27.57-16.6,30.38-31.66c2.81-15.06-48.89-78.26-49.15-99.45c-0.26-21.19,5.11-110.3,0-143.24
        C761.57,275.97,687.4,167.58,627.65,167.07z"/>
    </g>
  </g>
</g>
<g>
  <g>
    <g>
      <path class="st2" d="M691.99,830.91c0,0,119.49,42.13,193.79-68.17s73.53-241.28,0-388.35c0,0,118.73,116.43,81.96,276.52
        S787.74,905.98,691.99,830.91z"/>
    </g>
  </g>
</g>
<g>
  <g>
    <g>
      <path class="st2" d="M691.99,830.91c0,0-131.75,59.75-208.34-29.11s-68.94-170.81-28.34-265.03s93.45-144.77,111.83-213.71
        s14.55-48.26,29.87-109.53c15.32-61.28,39.06-71.24,64.34-84.26c0,0-66.09-17.95-94.98,121.79c0,0-22.21,64.34-76.6,163.92
        s-101.11,144.77-98.04,264.26C394.8,798.74,550.29,940.45,691.99,830.91z"/>
    </g>
  </g>
</g>
<g>
  <g>
    <g>
      <path class="st2" d="M693.14,183.52c4.3-23.43,9.21-46.71,15.22-69.83c1.37-5.71,3.48-11.77,4.3-16.89
        c0.77-5.39,0.51-10.96-0.63-16.41c-2.29-10.91-7.66-21.35-14.77-30.05c-3.51-4.22-7.82-8.43-11.97-10.26
        c-0.98-0.46-1.85-0.43-1.85-0.43c-0.91,0.26-2.23,0.79-3.25,1.34c-2.14,1.13-4.16,2.69-5.44,4.45c-0.69,0.86-1.05,1.77-1.18,2.39
        c-0.1,0.66-0.04,0.7,0.11,0.92c0.06,0.12,0.35,0.28,0.61,0.47c0.74,0.49,1.88,1.18,2.53,1.78l1.93,1.85l1.6,1.91
        c4.1,5.14,6.88,10.83,8.97,16.74c4.11,11.83,5.11,24.52,3.59,36.69c-1.54,12.2-5.5,23.89-10.88,34.67l-3.56-1.62
        c4.33-10.89,7.37-22.21,8.31-33.67c1.05-11.44-0.57-22.99-4.4-33.54c-1.92-5.25-4.55-10.36-7.94-14.46l-1.27-1.49l-1.3-1.22
        c-0.46-0.39-0.64-0.42-1.1-0.79c-1.01-0.57-2-1.19-2.9-2.22c-1.88-1.99-2.46-5.15-1.97-7.38c0.44-2.29,1.39-4.13,2.5-5.63
        c2.22-3.06,5.03-5.21,8.1-6.89c1.61-0.82,3.05-1.43,5-1.97c2.94-0.63,5.1,0.12,6.82,0.82c3.47,1.52,6.01,3.58,8.43,5.72
        c2.39,2.16,4.52,4.5,6.5,6.93c7.8,9.75,13.54,21.09,16.06,33.48c1.25,6.18,1.52,12.67,0.4,19.02c-0.5,3.19-1.58,6.33-2.38,9.04
        l-2.53,8.49c-6.46,22.75-12.21,45.81-17.82,68.86L693.14,183.52z"/>
    </g>
  </g>
</g>
<g>
  <g>
    <g>
      <path class="st2" d="M712.64,110.69c23.31,5.74,45.64,14.43,67.21,24.9c21.51,10.55,42.1,23.27,60.65,38.74
        c9.22,7.78,18.01,16.13,25.96,25.29c7.82,9.26,15.01,19.1,20.95,29.71c5.84,10.67,10.46,21.96,13.88,33.59
        c3.12,11.73,4.75,23.77,5.09,35.78l-3.91,0.23c-1.55-11.62-3.63-23.11-7.46-34.09c-3.76-10.98-8.6-21.54-14.58-31.46
        c-12.14-19.73-27.91-37.1-45.85-51.96c-17.82-15.03-37.75-27.55-58.36-38.74c-10.33-5.58-20.95-10.64-31.75-15.32
        c-10.74-4.79-21.77-9.1-32.85-12.89L712.64,110.69z"/>
    </g>
  </g>
</g>
<g>
  <g>
    <g>
      <path class="st2" d="M939.66,193.62"/>
    </g>
  </g>
</g>
<g>
  <g>
    <g>
      <path class="st2" d="M791.12,132.92l87.21,0.68c15.3,0.79,30.35,6.7,42.25,16.56c11.94,9.8,20.74,23.5,24.54,38.66
        c1.94,7.5,2.59,15.56,2.15,23.12l-0.89,21.71c-0.55,14.46-0.98,28.9-1.07,43.3c-0.07,14.39,0.15,28.76,1.31,42.87
        c0.59,7.05,1.39,14.05,2.68,20.81c1.26,6.74,3.04,13.33,5.66,18.87l0,0l4.88,12.38l-12.45-1.29c-6.67-0.69-12.22-1.9-18.11-3.37
        c-5.79-1.47-11.45-3.29-17.03-5.3c-11.12-4.09-21.85-9.13-32.03-15.05c-20.41-11.82-38.45-27.28-53.86-44.77
        c-7.68-8.79-14.56-18.2-20.99-27.87c-6.12-9.86-12.04-19.84-16.89-30.34c-10.05-20.82-17.65-42.67-23.28-64.93l4.81-1.32
        c6.41,21.75,14.73,42.9,25.3,62.79c5.12,10.04,11.24,19.48,17.51,28.76c6.57,9.07,13.52,17.85,21.19,25.96
        c15.37,16.13,33,30.04,52.54,40.37c9.75,5.17,19.93,9.47,30.36,12.85c5.22,1.65,10.5,3.12,15.81,4.26
        c5.21,1.12,10.9,2.03,15.6,2.33l-7.57,11.09l0,0c-3.33-7.71-5.01-15.34-6.21-22.87c-1.2-7.54-1.8-14.99-2.2-22.41
        c-0.76-14.83-0.52-29.5,0-44.11c0.54-14.6,1.43-29.14,2.42-43.64l1.56-21.73c0.61-6.9,0.25-13.48-1.22-20.08
        c-2.85-13.11-10.1-25.28-20.32-34.2c-10.17-8.97-23.29-14.64-36.97-15.77l-86.78-3.33L791.12,132.92z"/>
    </g>
  </g>
</g>
<g>
  <g>
    <path class="st2" d="M210.74,1196.56v23.68H35.99v-278.1h171.37v23.68H64.55v100.72h133.41v23.67H64.55v106.35H210.74z"/>
    <path class="st2" d="M500.13,1081.94c0,82.68-53.74,138.3-134.92,138.3h-94.33v-278.1h94.33
      C446.39,942.14,500.13,997.76,500.13,1081.94z M470.44,1081.94c0-69.9-42.84-116.13-107.48-116.13h-63.51v230.75h63.51
      C427.6,1196.56,470.44,1150.34,470.44,1081.94z"/>
    <path class="st2" d="M513.68,942.14h30.82l104.85,243.9l104.85-243.9h30.44l-121.76,278.1h-27.06L513.68,942.14z"/>
    <path class="st2" d="M824.12,942.14h28.56v278.1h-28.56V942.14z"/>
    <path class="st2" d="M910.18,1080.44c0-85.31,56.37-142.06,140.55-142.06c45.47,0,79.3,17.29,104.85,45.1l-18.04,18.42
      c-19.54-22.55-47.73-39.84-85.69-39.84c-66.89,0-111.61,47.35-111.61,118.38c0,71.78,44.35,119.88,110.87,119.88
      c41.34,0,72.9-19.54,92.82-48.48l19.54,18.04c-24.8,33.45-64.26,54.12-112.75,54.12C966.56,1224,910.18,1166.5,910.18,1080.44z"/>
    <path class="st2" d="M1388.23,1196.56v23.68h-174.75v-278.1h171.37v23.68h-142.8v100.72h133.41v23.67h-133.41v106.35H1388.23z"/>
  </g>
</g>
</svg>
